<?xml version="1.0"?>
<svg id="Vectors" xmlns="http://www.w3.org/2000/svg" version="1.1" viewBox="0 0 218.7 109.4">
  
  <path d="M116.4,91.4c-4.8-1.9-10.1-1.8-14.8.3-9.8,4.3-14.2,15.7-10,25.4,2.1,4.7,5.8,8.4,10.7,10.3,4.8,1.9,10.1,1.8,14.8-.3,4.7-2.1,8.4-5.8,10.3-10.7,1.9-4.8,1.8-10.1-.3-14.8-2.1-4.7-5.8-8.4-10.7-10.3Z" fill="#31312e"></path>
  <path d="M216.9,99.8l-25.4-60.5c-2.5-5.8-7-10.4-12.9-12.8L118.5,2l-.4-.2-.7-.2C114.8.5,111.9,0,109,0s-6.3.6-9.2,1.8l-60.5,25.4c-5.8,2.5-10.4,7-12.8,12.9L1.8,100.8c-2.4,5.9-2.4,12.3,0,18.1l25.4,60.4c2.5,5.8,7,10.4,12.9,12.8l60.7,24.8c2.9,1.2,5.9,1.8,9,1.8s6.2-.6,9.2-1.9l60.4-25.4c5.8-2.5,10.4-7,12.8-12.9l24.8-60.7c2.4-5.9,2.4-12.3,0-18.1ZM146.4,122c-.9.2-1.6.8-1.9,1.6-.3.8-.2,1.8.3,2.5l25.4,37.3c.8,1.2,1,2.7.4,4-.4,1-1.3,1.9-2.3,2.3-1.3.6-2.8.4-4-.4l-37.6-24.9c-.8-.5-1.7-.6-2.5-.2-.8.4-1.4,1.1-1.6,2l-8.4,44.3c-.3,1.4-1.2,2.6-2.6,3.2-1,.4-2.2.4-3.3,0-1.3-.5-2.3-1.7-2.6-3.1l-8.9-44.2c-.4-1.8-2.6-2.7-4.1-1.7l-37.3,25.4c-2.1,1.4-5.4.5-6.4-1.9-.6-1.3-.4-2.8.4-4l24.9-37.6c.5-.8.6-1.7.2-2.5-.4-.8-1.1-1.4-2-1.6l-44.3-8.4c-1.4-.3-2.6-1.2-3.2-2.6-.4-1-.4-2.2,0-3.3.5-1.3,1.7-2.3,3.1-2.6l44.2-9c.9-.2,1.6-.8,1.9-1.6.3-.8.2-1.7-.3-2.5l-25.4-37.3c-.8-1.2-1-2.7-.4-4,.4-1,1.3-1.9,2.3-2.3,1.3-.6,2.8-.4,4,.4l37.6,24.9c.7.5,1.7.6,2.5.2.8-.4,1.4-1.1,1.6-2l8.4-44.3c.3-1.4,1.2-2.6,2.6-3.2,2.4-1,5.4.6,5.9,3.1l8.9,44.2c.2.9.8,1.6,1.6,1.9h0c.8.3,1.7.2,2.5-.3l37.3-25.4c2.1-1.4,5.4-.5,6.4,1.9.6,1.3.4,2.8-.4,4l-24.9,37.6c-.5.8-.6,1.7-.2,2.5.4.8,1.1,1.4,2,1.6l44.3,8.4c1.4.3,2.6,1.2,3.2,2.6.4,1,.4,2.2,0,3.3-.5,1.3-1.7,2.3-3.1,2.6l-44.2,8.9Z" fill="#31312e"></path>
</svg>
